<svg width="22" height="4" viewBox="0 0 22 4" fill="none" xmlns="http://www.w3.org/2000/svg">
<path d="M1.72656 3.45312C2.68115 3.45312 3.45312 2.68115 3.45312 1.72656C3.45312 0.771973 2.68115 0 1.72656 0C0.771973 0 0 0.771973 0 1.72656C0 2.68115 0.771973 3.45312 1.72656 3.45312Z" fill="#EAEAEA"/>
<path d="M10.5964 3.45312C11.551 3.45312 12.323 2.68115 12.323 1.72656C12.323 0.771973 11.551 0 10.5964 0C9.64186 0 8.86988 0.771973 8.86988 1.72656C8.86988 2.68115 9.64186 3.45312 10.5964 3.45312Z" fill="#EAEAEA"/>
<path d="M19.4663 3.45312C20.4209 3.45312 21.1929 2.68115 21.1929 1.72656C21.1929 0.771973 20.4209 0 19.4663 0C18.5117 0 17.7398 0.771973 17.7398 1.72656C17.7398 2.68115 18.5117 3.45312 19.4663 3.45312Z" fill="#EAEAEA"/>
</svg>
