<svg width="11" height="13" viewBox="0 0 11 13" fill="none" xmlns="http://www.w3.org/2000/svg">
<path d="M9.77778 0H1.22222C0.55 0 0.00611111 0.531818 0.00611111 1.18182L0 8.82227C0 9.23 0.213889 9.59045 0.537778 9.80318L5.5 13L10.4561 9.80318C10.78 9.59045 10.9939 9.23 10.9939 8.82227L11 1.18182C11 0.531818 10.45 0 9.77778 0ZM5.5 11.5818L1.22222 8.82818V1.18182H9.77778V8.82227L5.5 11.5818ZM4.27167 7.19727L2.695 5.66682L1.83333 6.5L4.27778 8.86364L9.16667 4.13636L8.29889 3.29727L4.27167 7.19727Z" fill="white"/>
</svg>
